<?xml version="1.0" encoding="utf-8"?>
<svg xmlns="http://www.w3.org/2000/svg" width="128" height="128" viewBox="0 0 128 128">
  <defs>
    <linearGradient id="heartGrad" x1="0" y1="20" x2="0" y2="110" gradientUnits="userSpaceOnUse">
      <stop offset="0" stop-color="#ff7f9e"/>
      <stop offset="1" stop-color="#d63b60"/>
    </linearGradient>
    <linearGradient id="filmGrad" x1="20" y1="52" x2="108" y2="76" gradientUnits="userSpaceOnUse" gradientTransform="matrix(1, 0, 0, 1.397835, 0, -19.891752)">
      <stop offset="0" stop-color="#3a4050"/>
      <stop offset="1" stop-color="#222733"/>
    </linearGradient>
    <linearGradient id="shirtGrad" x1="0" y1="72" x2="0" y2="114" gradientUnits="userSpaceOnUse">
      <stop offset="0" stop-color="#6cc6f3"/>
      <stop offset="1" stop-color="#3186d9"/>
    </linearGradient>
  </defs>
  <path d="M64 112C41 95 24 79 24 59C24 46 34 36 47 36C54 36 60 39 64 45C68 39 74 36 81 36C94 36 104 46 104 59C104 79 87 95 64 112Z" fill="url(#heartGrad)"/>
  <path d="M64 105C44 90 30 76 30 59C30 49 38 42 47 42C54 42 60 46 64 52C68 46 74 42 81 42C90 42 98 49 98 59C98 76 84 90 64 105Z" fill="#ffb1c3" opacity="0.16"/>
  <rect x="18" y="50" width="92" height="39.14" rx="10" fill="url(#filmGrad)" style=""/>
  <rect x="18" y="50" width="92" height="39.536" rx="10" fill="none" stroke="#1a1f2b" stroke-width="2" style=""/>
  <g fill="#11141c" opacity="0.8">
    <rect x="23" y="55" width="6" height="6" rx="1.5"/>
    <rect x="23" y="67" width="6" height="6" rx="1.5"/>
    <rect x="99" y="55" width="6" height="6" rx="1.5"/>
    <rect x="99" y="67" width="6" height="6" rx="1.5"/>
  </g>
  <g fill="#11141c" opacity="0.8" transform="matrix(1, 0, 0, 1, -0.283818, 11.648903)">
    <rect x="23" y="55" width="6" height="6" rx="1.5"/>
    <rect x="23" y="67" width="6" height="6" rx="1.5"/>
    <rect x="99" y="55" width="6" height="6" rx="1.5"/>
    <rect x="99" y="67" width="6" height="6" rx="1.5"/>
  </g>
  <rect x="35.461" y="69.854" width="56" height="16" rx="4" fill="#5b6070" opacity="0.6" style="stroke-width: 1;"/>
  <rect x="35.268" y="52.828" width="56" height="16" rx="4" fill="#5b6070" opacity="0.6"/>
  <circle cx="64.68" cy="68.356" r="14" fill="#f2c19f"/>
  <path d="M 50.68 68.356 C 50.68 60.356 56.68 54.356 64.68 54.356 C 72.68 54.356 78.68 60.356 78.68 68.356 C 78.68 60.356 71.68 54.356 64.68 54.356 C 57.68 54.356 50.68 60.356 50.68 68.356 Z" fill="#3e2f2b"/>
  <path d="M 62.68 70.356 L 66.68 70.356 C 66.68 73.356 68.68 75.356 71.68 75.356 L 71.68 78.356 C 67.68 78.356 64.68 76.356 62.68 73.356 C 60.68 76.356 57.68 78.356 53.68 78.356 L 53.68 75.356 C 56.68 75.356 58.68 73.356 58.68 70.356 L 62.68 70.356 Z" fill="#cc8b63"/>
  <path d="M38 112C38 94 50 82 64 82C78 82 90 94 90 112Z" fill="url(#shirtGrad)"/>
  <path d="M48 89L64 100L80 89C78 85 72 82 64 82C56 82 50 85 48 89Z" fill="#ffffff" opacity="0.86"/>
  <path d="M64 100L58 112H70Z" fill="#2465b6" opacity="0.7"/>
</svg>